<svg height="512pt" viewBox="-53 0 511 512" width="512pt" xmlns="http://www.w3.org/2000/svg"><path d="m405.875 357.890625c-6.921875-58.992187-43.601562-101.347656-79.070312-142.304687l-3.910157-4.519532c-25.597656-29.613281-42.132812-55.933594-52.03125-82.828125-8.710937-23.660156-9.761719-47.859375-10.878906-73.484375-.4375-10.109375-.894531-20.5625-1.839844-31.164062l-2.101562-23.589844-20.441407 11.960938c-38.253906 22.382812-68.859374 51.574218-90.957031 86.769531-17.652343 28.109375-29.878906 59.996093-36.34375 94.78125-6.175781 33.222656-5.898437 62.566406-4.410156 82.1875l-86.175781-30.777344-4.660156 14.921875c-27.894532 89.261719-4.082032 152.5 20.804687 189.832031 26.984375 40.476563 60.636719 59.613281 62.058594 60.410157l3.417969 1.914062h58.058593l-3.417969-1.914062c-1.941406-1.089844-19.371093-11.234376-33.609374-32.589844-13.351563-20.027344-26.152344-53.863282-11.320313-101.320313l4.660156-14.921875 39.988281 14.277344c-.066406-9.011719.570313-19.886719 2.757813-31.65625 7.714844-41.503906 30.964844-74.660156 67.242187-95.882812l20.441407-11.960938 2.101562 23.585938c.488281 5.472656.71875 10.789062.941407 15.925781.53125 12.210937 1.035156 23.742187 4.984374 34.472656 4.628907 12.574219 12.460938 24.996094 24.648438 39.097656l1.957031 2.257813c17.613281 20.34375 37.582031 43.402344 41.3125 75.191406 3.25 27.691406-10.296875 62.789062-31.507812 81.644531l-4.269531 3.792969h59.226562l4.265625-3.792969c18.988281-16.878906 35.363281-41.738281 46.101563-70 10.542968-27.746093 14.796874-56.269531 11.976562-80.316406zm0 0"/><path d="m165.710938 481.964844h106.691406c11.796875-13.21875 19.75-35.683594 17.847656-51.902344-2.65625-22.613281-17.972656-40.300781-34.1875-59.03125l-1.972656-2.277344c-14.628906-16.921875-24.199219-32.289062-30.113282-48.363281-3.894531-10.582031-5.375-20.832031-6.117187-30.824219-44.734375 42.332032-32.710937 104.21875-32.5625 104.921875l5.375 26.144531-56.6875-20.246093c-8.5 48.96875 21.746094 74.589843 31.726563 81.578125zm0 0"/></svg>